<?xml version="1.0" standalone="no"?>
<!DOCTYPE svg PUBLIC "-//W3C//DTD SVG 20010904//EN"
 "http://www.w3.org/TR/2001/REC-SVG-20010904/DTD/svg10.dtd">
<svg version="1.0" xmlns="http://www.w3.org/2000/svg"
 width="1024.000000pt" height="1024.000000pt" viewBox="0 0 1024.000000 1024.000000"
 preserveAspectRatio="xMidYMid meet">

<g transform="translate(0.000000,1024.000000) scale(0.100000,-0.100000)"
fill="#000000" stroke="none">
<path d="M5091 9199 c-30 -5 -60 -14 -68 -20 -7 -6 -19 -9 -27 -6 -7 3 -24 0
-38 -7 -13 -7 -29 -11 -36 -8 -6 2 -12 -4 -12 -13 0 -14 -3 -15 -14 -6 -11 9
-23 8 -53 -5 -21 -9 -40 -18 -43 -18 -23 -4 -160 -71 -160 -78 0 -5 -9 -6 -20
-3 -11 3 -20 2 -20 -4 0 -5 -13 -12 -29 -16 -16 -3 -32 -13 -35 -22 -4 -8 -13
-13 -21 -10 -10 4 -12 1 -8 -10 4 -10 2 -14 -4 -10 -5 3 -22 -1 -37 -9 -16 -7
-35 -14 -42 -14 -8 0 -14 -4 -14 -10 0 -5 -7 -10 -15 -10 -7 0 -18 -6 -22 -13
-4 -7 -20 -20 -34 -29 -30 -19 -153 -138 -158 -153 -7 -18 -35 -60 -46 -67 -5
-4 -10 -11 -11 -15 0 -4 -11 -30 -24 -58 -13 -27 -23 -53 -22 -57 1 -5 -3 -8
-8 -8 -5 0 -9 -3 -8 -7 2 -5 -5 -28 -14 -53 -17 -47 -46 -174 -46 -200 0 -8
-3 -44 -6 -80 -9 -97 -9 -230 -1 -275 3 -22 8 -56 10 -75 17 -174 16 -180 -21
-139 -10 12 -31 27 -46 35 -25 13 -28 12 -38 -6 -9 -17 -8 -20 7 -20 10 0 32
-16 48 -36 20 -24 40 -36 60 -37 29 -2 30 -4 29 -47 0 -25 -4 -85 -8 -135 -6
-66 -11 -84 -17 -67 -17 45 -51 19 -53 -40 -1 -34 19 -37 45 -6 l19 21 0 -21
c0 -34 17 -26 23 11 2 17 19 86 37 152 27 103 32 137 32 241 1 67 -2 126 -5
131 -4 6 -6 57 -6 114 1 57 1 119 1 138 -1 19 8 45 19 59 10 14 19 32 19 41 0
14 2 14 10 1 6 -9 10 -10 10 -3 0 6 -5 15 -11 19 -7 4 0 17 18 37 l28 30 -32
-19 c-25 -14 -33 -25 -33 -46 0 -24 -15 -46 -26 -36 -6 6 28 88 36 88 17 0 70
57 74 80 10 60 28 110 39 110 9 0 9 2 0 8 -26 16 119 262 154 262 7 0 13 6 13
13 0 8 11 19 25 25 20 9 25 9 25 -1 0 -7 -6 -19 -12 -26 -11 -11 -8 -12 12 -5
14 5 42 8 63 7 20 -2 37 2 37 7 0 6 9 10 20 10 11 0 20 -4 20 -10 0 -5 6 -10
14 -10 7 0 26 -10 41 -22 17 -13 40 -21 61 -20 24 1 34 -3 34 -13 0 -8 -5 -15
-11 -15 -5 0 -7 -5 -4 -11 5 -7 14 -3 26 10 11 12 26 21 34 21 8 0 15 7 15 15
0 8 7 15 16 15 10 0 14 -6 10 -15 -3 -8 0 -15 6 -15 23 0 -7 -18 -37 -23 -24
-3 -22 -4 11 -6 29 -1 44 4 48 14 3 9 18 15 35 15 31 0 50 -15 29 -23 -7 -2
-10 -8 -5 -12 11 -13 37 28 26 41 -7 8 7 12 48 12 59 0 93 -16 93 -45 0 -7 5
-13 10 -13 7 0 7 -6 0 -20 -8 -15 -7 -18 2 -15 7 2 28 -9 46 -26 25 -22 32
-35 27 -52 -5 -17 -4 -19 4 -7 8 12 14 5 30 -30 11 -25 21 -50 21 -56 0 -14
30 -27 30 -14 0 6 5 10 10 10 6 0 10 -7 10 -15 0 -8 -4 -15 -10 -15 -5 0 -10
-7 -10 -15 0 -8 9 -15 20 -15 13 0 20 -7 20 -20 0 -13 10 -24 28 -31 15 -5 34
-12 42 -16 8 -3 37 -5 64 -4 31 2 46 -1 42 -7 -10 -16 22 -21 99 -16 180 12
225 11 225 -4 0 -8 6 -12 15 -8 9 3 15 0 15 -10 0 -9 9 -18 19 -21 12 -3 17
-11 14 -19 -6 -17 1 -18 28 -4 11 6 18 7 17 2 -3 -11 48 -62 63 -62 16 0 10
23 -13 47 -18 20 -19 23 -4 23 21 0 39 -46 32 -82 -3 -16 -1 -28 4 -28 6 0 10
-9 10 -19 0 -13 8 -21 23 -23 12 -2 21 -9 20 -16 -4 -18 15 -15 26 5 8 14 12
15 25 4 14 -12 16 -9 16 29 0 37 2 41 15 30 8 -7 15 -20 15 -29 0 -11 3 -12 8
-4 9 14 50 -28 44 -46 -2 -6 4 -24 14 -38 12 -19 13 -28 6 -31 -17 -5 -15 -49
3 -55 11 -5 13 -22 10 -76 -2 -39 -6 -78 -9 -88 -3 -10 -15 -83 -26 -163 -24
-163 -26 -265 -6 -360 7 -36 11 -88 10 -117 -2 -29 1 -55 6 -58 6 -4 10 7 10
24 0 43 15 39 39 -12 22 -46 28 -102 11 -112 -5 -3 -10 -14 -10 -24 0 -11 -16
-42 -35 -70 -20 -28 -33 -56 -30 -61 3 -6 20 -10 36 -10 35 0 75 37 84 78 3
18 16 32 36 41 78 34 93 196 24 265 -38 38 -97 55 -122 34 -14 -12 -15 -9 -8
27 4 22 9 61 11 88 5 63 19 88 47 83 12 -2 27 0 32 5 6 4 23 9 37 11 28 4 51
18 29 18 -7 0 -9 5 -5 11 4 8 9 7 15 -2 7 -11 11 -10 23 6 9 11 16 14 16 8 0
-7 -13 -25 -30 -40 -26 -23 -30 -33 -29 -77 0 -28 10 -91 23 -140 l22 -89 14
154 c15 165 14 181 -3 219 -16 33 -49 37 -93 11 -48 -29 -66 -28 -55 2 21 54
60 238 66 307 3 41 11 78 17 81 9 6 8 11 -1 22 -7 9 -8 18 -3 21 5 3 8 30 7
61 -2 30 2 55 7 55 5 0 6 6 1 13 -8 12 -13 60 -14 130 0 20 -3 37 -7 37 -4 0
-8 24 -10 52 -1 29 -7 57 -12 62 -6 6 -10 16 -10 22 0 7 -5 25 -12 41 -6 15
-12 34 -14 42 -1 7 -7 18 -13 24 -6 6 -11 18 -11 27 0 8 -9 21 -20 28 -11 7
-20 17 -20 23 0 6 -11 25 -25 43 -14 18 -25 38 -25 44 0 20 -108 122 -129 122
-11 0 -22 9 -26 19 -3 11 -15 23 -27 27 -28 8 -69 45 -62 56 3 4 -4 8 -15 8
-12 0 -21 5 -21 11 0 18 -50 56 -81 63 -17 3 -29 12 -29 21 0 8 -3 14 -7 13
-5 -1 -17 3 -28 9 -11 6 -31 13 -45 14 -27 4 -50 21 -50 37 0 9 -34 28 -36 20
0 -2 -16 9 -35 23 -19 14 -70 36 -114 48 -44 13 -89 28 -100 34 -25 13 -242
17 -314 6z"/>
<path d="M4585 8750 c-3 -5 3 -10 15 -10 12 0 18 5 15 10 -3 6 -10 10 -15 10
-5 0 -12 -4 -15 -10z"/>
<path d="M4701 8696 c-11 -13 -10 -17 3 -22 22 -8 30 1 19 21 -9 15 -11 15
-22 1z"/>
<path d="M4764 8539 c-8 -14 11 -33 25 -25 16 10 13 36 -3 36 -8 0 -18 -5 -22
-11z"/>
<path d="M4820 8495 c-11 -13 -8 -15 15 -15 23 0 26 2 15 15 -7 8 -14 15 -15
15 -1 0 -8 -7 -15 -15z"/>
<path d="M4895 8460 c-3 -5 1 -10 9 -10 9 0 16 5 16 10 0 6 -4 10 -9 10 -6 0
-13 -4 -16 -10z"/>
<path d="M5500 8250 c0 -5 5 -10 10 -10 6 0 10 5 10 10 0 6 -4 10 -10 10 -5 0
-10 -4 -10 -10z"/>
<path d="M5350 8110 c0 -11 -3 -20 -7 -21 -5 0 -18 -2 -30 -3 -33 -4 -36 -10
-36 -66 0 -29 -5 -50 -11 -51 -11 0 72 -29 86 -29 3 0 9 8 11 18 4 13 5 11 6
-5 1 -18 7 -23 29 -24 21 -1 18 -3 -15 -11 -57 -12 -55 -27 2 -20 43 4 62 -9
33 -22 -7 -3 5 -3 27 1 22 3 54 11 70 19 17 7 46 15 65 17 30 3 29 4 -10 5
-25 1 -63 -5 -85 -13 -48 -18 -45 -17 -45 -6 0 5 18 12 40 16 22 4 51 16 65
27 14 11 32 17 40 14 8 -3 20 1 27 8 8 7 20 15 28 19 11 4 10 6 -4 6 -18 1
-18 2 1 19 11 9 18 23 16 30 -3 6 2 12 11 12 8 0 18 5 22 12 5 8 0 9 -17 5
-42 -11 -95 2 -96 25 -2 28 -4 29 -63 35 -32 3 -56 0 -65 -7 -11 -9 -22 -9
-46 -1 -44 15 -49 14 -49 -9z m185 -9 c3 -5 1 -12 -5 -16 -5 -3 -10 1 -10 9 0
18 6 21 15 7z"/>
<path d="M5723 8063 c9 -2 23 -2 30 0 6 3 -1 5 -18 5 -16 0 -22 -2 -12 -5z"/>
<path d="M5688 8033 c7 -3 16 -2 19 1 4 3 -2 6 -13 5 -11 0 -14 -3 -6 -6z"/>
<path d="M5668 7993 c7 -3 16 -2 19 1 4 3 -2 6 -13 5 -11 0 -14 -3 -6 -6z"/>
<path d="M5140 7936 c0 -8 -6 -17 -12 -19 -9 -4 -10 -6 -1 -6 13 -1 7 -114 -7
-142 -5 -9 -10 -57 -12 -107 -2 -74 0 -94 13 -108 16 -15 17 -13 23 22 12 77
17 362 6 369 -5 3 -10 0 -10 -9z"/>
<path d="M5798 7833 c6 -2 18 -2 25 0 6 3 1 5 -13 5 -14 0 -19 -2 -12 -5z"/>
<path d="M5840 7834 c0 -14 -74 -37 -78 -24 -2 6 -10 6 -22 0 -12 -6 -17 -16
-13 -26 4 -12 0 -14 -20 -8 -18 4 -32 1 -43 -10 -8 -9 -19 -14 -24 -11 -4 3
-30 1 -56 -4 -34 -7 -51 -6 -56 2 -5 8 -10 8 -20 -1 -8 -6 -44 -14 -81 -18
-37 -4 -67 -12 -67 -17 0 -7 -4 -7 -12 1 -7 7 -17 12 -22 12 -6 0 -5 -4 3 -9
10 -7 8 -10 -10 -16 -66 -19 -79 -29 -79 -60 0 -17 -5 -36 -12 -43 -9 -9 -7
-13 6 -18 11 -4 15 -13 11 -25 -4 -13 -1 -19 9 -19 8 0 23 -12 34 -27 18 -26
18 -33 6 -92 -15 -73 -11 -66 -46 -75 -22 -5 -35 0 -63 25 l-36 32 -29 -28
c-22 -21 -30 -38 -30 -62 0 -18 -4 -33 -10 -33 -6 0 -6 -10 1 -27 9 -25 3
-106 -9 -128 -4 -5 -8 -19 -9 -29 -2 -11 -15 -34 -28 -52 -14 -18 -25 -35 -25
-38 0 -6 21 -31 56 -69 12 -12 25 -37 28 -54 7 -29 4 -36 -22 -58 -16 -14 -29
-31 -29 -37 1 -7 -2 -32 -7 -56 -6 -33 -4 -47 7 -60 8 -9 17 -29 19 -44 5 -25
3 -27 -18 -22 -29 8 -83 -31 -77 -55 2 -10 -3 -23 -11 -30 -21 -17 -20 -48 0
-59 21 -12 8 -36 -15 -27 -47 20 -164 5 -234 -30 -16 -8 -34 -12 -39 -9 -5 3
-14 1 -21 -5 -8 -6 -18 -6 -27 -1 -27 17 -58 10 -80 -17 -44 -57 1 -97 56 -50
l29 25 30 -24 c17 -14 36 -29 43 -35 23 -19 124 -69 138 -69 23 0 28 -29 8
-51 -18 -19 -30 -89 -16 -89 4 0 8 -12 7 -27 0 -26 3 -28 50 -31 27 -2 55 -8
62 -14 17 -14 17 -45 -1 -51 -7 -3 -17 -18 -20 -34 -4 -15 -18 -42 -32 -60
-13 -17 -24 -39 -24 -48 0 -9 -9 -19 -20 -22 -23 -6 -26 -19 -7 -27 6 -2 3 -4
-8 -4 -43 2 -56 -2 -48 -14 11 -18 33 -82 29 -85 -7 -7 -36 10 -35 21 1 6 1
20 0 30 -1 24 -16 11 -16 -15 0 -17 -14 -28 -16 -11 0 4 -5 12 -10 18 -6 7 -2
17 11 29 36 33 21 37 -19 6 -45 -36 -56 -39 -39 -11 10 15 10 22 0 32 -10 10
-14 10 -21 0 -4 -7 -12 -12 -17 -11 -21 4 -26 -2 -14 -16 19 -23 0 -18 -21 6
-11 12 -32 22 -51 23 -23 2 -33 7 -32 18 1 10 -8 18 -23 21 -37 7 -34 -5 12
-46 25 -21 46 -33 50 -27 11 18 27 10 22 -11 -4 -15 0 -23 13 -26 10 -3 20
-13 23 -22 4 -18 167 -73 255 -86 34 -6 48 -14 62 -38 12 -19 16 -35 10 -41
-14 -18 -12 -30 7 -37 17 -7 17 -8 1 -8 -24 -1 -23 -21 1 -21 11 0 22 -6 25
-12 5 -10 7 -10 12 0 3 6 19 12 35 12 26 0 29 3 23 25 -4 18 -1 27 11 31 13 5
14 9 4 15 -10 6 -10 12 4 27 14 15 31 19 75 19 59 0 185 20 212 33 9 5 24 4
34 -2 16 -9 18 -8 13 6 -4 10 -3 15 3 11 5 -3 23 1 39 9 27 14 29 14 34 -4 3
-11 1 -20 -4 -20 -5 0 -9 -4 -9 -10 0 -5 7 -7 15 -4 8 3 22 -2 32 -11 16 -16
18 -16 33 2 8 11 25 22 38 25 20 5 21 3 15 -20 -3 -15 -10 -30 -16 -33 -5 -4
-5 -9 0 -12 5 -3 28 12 53 34 24 21 47 39 52 39 4 0 10 11 14 25 3 14 10 25
15 25 5 0 9 5 9 10 0 6 -8 10 -17 8 -14 -2 -18 5 -19 32 -2 37 21 74 39 63 5
-3 7 -2 4 4 -3 5 16 34 44 64 27 29 49 60 49 67 0 7 7 15 15 18 8 3 23 20 34
37 11 18 30 43 43 57 36 39 68 89 68 108 0 10 5 23 12 30 9 9 9 12 0 12 -7 0
-12 -6 -12 -12 0 -9 -3 -8 -10 2 -5 8 -12 11 -16 7 -4 -3 -1 -13 5 -21 8 -10
9 -16 1 -21 -5 -3 -10 -12 -10 -20 0 -8 -11 -25 -25 -39 -23 -23 -29 -24 -27
-5 1 4 -9 4 -21 1 -21 -5 -21 -4 -4 15 9 11 17 30 16 44 -1 24 -1 24 -7 2 -4
-13 -15 -31 -24 -42 -12 -14 -13 -21 -5 -25 9 -3 8 -7 -3 -15 -8 -5 -11 -14
-6 -18 4 -4 13 0 20 10 16 21 26 22 26 2 0 -9 -11 -27 -25 -41 -14 -14 -25
-32 -25 -41 0 -10 -6 -13 -16 -9 -11 4 -20 -5 -32 -34 -9 -22 -21 -38 -27 -36
-5 1 -18 -6 -27 -17 -12 -13 -23 -17 -35 -11 -20 8 -63 12 -63 6 0 -3 8 -11
17 -18 24 -17 8 -32 -17 -16 -26 16 -26 16 -35 -10 -6 -20 -8 -20 -12 -5 -6
23 -18 22 -44 -4 -17 -17 -23 -18 -29 -8 -5 7 -14 14 -22 16 -77 17 -74 17
-59 0 7 -9 17 -14 22 -11 14 8 11 -30 -3 -44 -17 -17 -31 -15 -24 3 3 9 0 15
-9 15 -8 0 -15 6 -16 13 0 6 -4 2 -9 -10 -11 -27 -38 -30 -55 -6 -11 15 -13
15 -19 -5 -4 -12 -11 -20 -16 -17 -5 3 -7 12 -3 20 3 10 -1 15 -16 15 -11 0
-25 9 -31 20 -6 12 -16 17 -26 13 -14 -5 -14 -3 -3 15 10 17 10 23 -5 37 -9
10 -16 25 -14 34 4 19 32 22 34 4 1 -7 2 -17 3 -23 2 -15 31 0 31 17 0 8 5 11
11 8 6 -4 19 2 30 14 25 27 36 26 59 -1 18 -23 18 -23 39 -4 12 11 31 20 42
21 11 1 28 12 37 25 53 72 72 106 70 119 -2 9 5 24 14 33 21 21 24 58 6 58 -8
0 -6 5 4 10 9 6 14 18 11 29 -3 11 3 24 14 32 19 15 37 47 49 89 12 40 5 97
-18 153 -22 54 -33 117 -20 117 4 0 8 20 10 45 2 28 -1 45 -8 45 -6 0 -8 5 -4
11 3 6 14 9 23 6 14 -3 16 1 13 24 -3 18 0 29 7 29 7 0 10 4 7 9 -3 5 2 12 12
16 15 7 14 9 -8 15 -24 8 -24 8 -2 9 14 1 22 7 22 19 0 10 4 22 9 27 5 6 14
27 21 48 6 20 15 37 20 37 4 0 7 8 6 17 -4 24 27 78 45 78 8 0 20 8 27 18 7 9
20 17 28 17 9 0 22 7 30 15 8 8 21 12 29 9 10 -4 18 2 24 17 l8 24 7 -23 c10
-29 26 -28 26 2 0 19 4 23 20 19 25 -7 26 12 4 56 -9 18 -20 28 -26 24 -7 -4
-9 0 -5 10 3 9 2 19 -3 22 -14 8 -12 66 2 119 9 33 17 46 32 48 21 3 30 37 13
49 -5 4 3 9 17 11 14 3 24 1 23 -5 -1 -5 5 -12 13 -15 8 -2 12 -1 8 3 -4 5 -3
14 3 22 9 10 8 13 -5 13 -9 0 -16 4 -16 9 0 5 10 7 21 4 16 -4 20 -2 17 8 -3
8 -15 14 -27 13 -27 -1 -28 22 0 29 23 6 21 31 -2 33 -31 2 -50 16 -39 29 7 8
4 17 -10 30 -12 10 -18 25 -16 32 3 7 -4 23 -17 36 -12 12 -22 25 -22 29 0 13
-89 88 -105 88 -9 0 -21 5 -28 12 -7 7 -12 8 -12 2z m210 -354 c0 -5 -2 -10
-4 -10 -3 0 -8 5 -11 10 -3 6 -1 10 4 10 6 0 11 -4 11 -10z m-504 -77 c-10
-10 -19 5 -10 18 6 11 8 11 12 0 2 -7 1 -15 -2 -18z m204 -39 c0 -17 -23 -33
-59 -40 l-32 -7 20 34 c12 19 21 45 21 59 l0 25 25 -30 c13 -16 24 -35 25 -41z
m-70 46 c0 -5 -2 -10 -4 -10 -3 0 -8 5 -11 10 -3 6 -1 10 4 10 6 0 11 -4 11
-10z m-383 -72 c-3 -8 -6 -5 -6 6 -1 11 2 17 5 13 3 -3 4 -12 1 -19z m469 -60
c-9 -5 -27 -7 -39 -5 -18 4 -18 4 6 6 15 0 27 6 27 12 0 5 5 7 11 3 8 -5 6
-10 -5 -16z m-524 -91 c-3 -10 6 -27 22 -42 28 -26 42 -33 31 -15 -3 6 -1 10
4 10 17 0 13 -20 -4 -26 -10 -4 -13 -13 -9 -26 4 -13 2 -18 -4 -14 -6 3 -13 0
-16 -6 -6 -15 -66 48 -66 69 0 7 -9 13 -20 13 -16 0 -19 6 -18 35 1 19 5 35 9
35 5 0 6 7 3 15 -4 9 0 15 10 15 9 0 16 5 16 10 0 6 -5 10 -11 10 -5 0 -7 5
-3 11 9 16 62 -72 56 -94z m548 53 c0 -5 -15 -10 -32 -10 -25 0 -29 3 -18 10
20 13 50 13 50 0z m-37 -47 c-7 -2 -21 -2 -30 0 -10 3 -4 5 12 5 17 0 24 -2
18 -5z m-403 -19 c0 -8 -4 -12 -10 -9 -5 3 -10 10 -10 16 0 5 5 9 10 9 6 0 10
-7 10 -16z m38 -40 c13 -9 12 -12 -5 -16 -16 -4 -19 0 -20 26 -1 17 1 24 4 16
4 -8 13 -20 21 -26z m-38 1 c0 -8 -7 -15 -16 -15 -14 0 -14 3 -4 15 7 8 14 15
16 15 2 0 4 -7 4 -15z m10 -41 c0 -2 -9 -4 -21 -4 -11 0 -18 4 -14 10 5 8 35
3 35 -6z m-15 -44 c3 -5 -1 -10 -10 -10 -9 0 -13 5 -10 10 3 6 8 10 10 10 2 0
7 -4 10 -10z m-56 -26 c-9 -11 -15 -12 -23 -4 -8 8 -7 13 4 20 20 12 33 1 19
-16z m55 -39 c12 -19 13 -26 2 -40 -12 -17 -14 -17 -39 1 -24 17 -35 52 -21
66 10 11 43 -4 58 -27z m-198 -77 c49 9 81 -53 40 -80 -8 -6 -6 -11 4 -18 10
-6 11 -10 3 -10 -7 0 -13 -5 -13 -11 0 -6 7 -8 18 -4 23 9 5 -7 -38 -33 l-35
-21 0 29 c-1 25 1 27 23 19 32 -12 41 -11 18 2 -15 9 -16 13 -5 20 9 7 4 8
-16 4 -16 -3 -24 -2 -17 1 16 8 16 28 -1 21 -10 -4 -13 8 -14 47 0 28 2 46 4
40 2 -6 15 -9 29 -6z m147 -101 c3 -8 -1 -14 -9 -14 -15 0 -18 9 -7 20 9 9 10
9 16 -6z m47 -14 c-1 -26 -14 -53 -20 -43 -9 15 -1 50 11 50 5 0 9 -3 9 -7z
m-160 -108 c0 -8 -4 -15 -10 -15 -5 0 -10 7 -10 15 0 8 5 15 10 15 6 0 10 -7
10 -15z m-45 -154 c3 -5 1 -12 -5 -16 -5 -3 -10 1 -10 9 0 18 6 21 15 7z m490
-78 c19 -44 19 -128 0 -168 l-13 -30 -2 30 c-3 36 -3 33 5 70 l6 30 -15 -30
c-19 -40 -20 -28 -1 25 15 42 12 83 -9 109 -8 11 -8 13 2 7 7 -4 19 -23 27
-43z m-485 17 c0 -13 -10 -24 -27 -31 -40 -15 -51 -5 -16 16 18 10 30 22 27
27 -3 4 0 8 5 8 6 0 11 -9 11 -20z m225 -70 c3 -6 -1 -7 -9 -4 -18 7 -21 14
-7 14 6 0 13 -4 16 -10z m39 -6 c9 -3 16 -12 16 -20 0 -12 -4 -12 -20 -2 -30
19 -27 34 4 22z m-601 -86 c-3 -14 -1 -18 4 -12 11 15 45 14 61 -3 21 -21 10
-47 -21 -50 -24 -2 -27 1 -21 19 5 16 3 20 -9 15 -9 -3 -18 1 -21 9 -9 23 -7
44 3 44 5 0 7 -10 4 -22z m637 -95 c-1 -26 -14 -53 -27 -53 -10 0 -8 -6 7 -22
24 -26 25 -34 4 -42 -10 -4 -26 1 -37 11 -15 13 -21 15 -24 6 -6 -17 -20 -16
-26 1 -3 7 7 26 21 42 15 16 28 33 28 39 1 5 2 13 3 18 0 4 12 7 26 7 14 0 25
-3 25 -7z m-100 -43 c0 -5 -7 -10 -15 -10 -8 0 -15 5 -15 10 0 6 7 10 15 10 8
0 15 -4 15 -10z m-175 -240 c7 -12 -2 -12 -30 0 -19 8 -19 9 2 9 12 1 25 -3
28 -9z m38 -40 c3 -14 -1 -24 -15 -31 -23 -12 -34 -6 -22 13 9 13 10 18 13 39
2 16 18 2 24 -21z m483 -258 c-18 -16 -18 -16 -6 6 6 13 14 21 18 18 3 -4 -2
-14 -12 -24z m-121 -22 c-10 -11 -22 -20 -27 -20 -4 0 -3 9 4 20 7 11 19 20
27 20 11 0 10 -5 -4 -20z"/>
<path d="M4472 7809 c-13 -5 -20 -13 -17 -19 3 -5 -4 -15 -17 -20 -13 -5 -30
-14 -38 -20 -8 -5 -31 -17 -50 -25 -34 -15 -34 -15 -5 -10 17 2 24 2 18 -1 -7
-3 -13 -14 -13 -25 0 -11 -7 -19 -16 -19 -9 0 -12 5 -8 13 4 6 -2 3 -14 -7
-26 -23 -28 -30 -6 -22 12 4 14 1 9 -14 -8 -26 6 -27 213 -19 64 3 85 0 92
-11 11 -18 -5 -30 -40 -30 -38 0 -143 -29 -151 -42 -4 -6 -13 -7 -20 -3 -8 5
-11 5 -7 0 4 -4 -2 -15 -13 -24 -24 -20 -42 -78 -27 -87 6 -4 24 -7 39 -6 16
0 29 -4 29 -9 0 -5 11 -7 25 -3 16 4 25 2 25 -6 0 -6 4 -9 10 -5 5 3 26 -2 47
-11 36 -16 73 -25 73 -17 0 1 -22 14 -49 27 -55 28 -69 51 -46 76 26 29 55 32
56 7 1 -41 8 -59 28 -81 14 -15 18 -29 14 -45 -4 -17 -1 -28 12 -37 14 -10 15
-14 4 -14 -12 0 -12 -2 1 -10 13 -8 13 -11 1 -19 -10 -7 -6 -11 18 -16 17 -4
29 -11 25 -16 -3 -5 6 -9 20 -9 26 0 31 -17 11 -32 -6 -5 -3 -8 7 -8 9 0 19 4
23 10 3 5 13 6 21 3 9 -3 21 3 30 16 8 11 22 21 30 21 9 0 29 13 45 30 26 26
28 32 17 50 -11 18 -10 23 5 32 15 8 18 17 12 45 -5 28 -3 35 7 30 10 -3 15 5
16 26 2 17 5 33 7 35 3 3 -9 20 -25 39 -36 40 -38 55 -7 48 12 -3 42 -6 67 -8
38 -2 46 1 57 23 28 56 -2 129 -48 115 -10 -3 -34 1 -53 9 -20 8 -37 15 -39
15 -1 0 -9 2 -17 5 -70 23 -170 44 -193 39 -22 -4 -26 -2 -21 10 5 14 1 15
-28 7 -27 -8 -35 -7 -48 8 -17 21 -62 26 -98 11z m3 -79 c-3 -5 -14 -10 -23
-10 -15 0 -15 2 -2 10 20 13 33 13 25 0z m11 -39 c-3 -4 -20 -8 -38 -9 -23 -1
-28 2 -18 8 8 5 23 7 34 4 13 -4 16 -3 11 6 -5 9 -4 11 4 6 6 -4 9 -11 7 -15z
m-112 -41 c-19 -7 -19 -7 1 -12 11 -3 4 -5 -17 -5 -40 0 -44 23 -5 29 30 5 45
-4 21 -12z m79 -17 c-7 -2 -21 -2 -30 0 -10 3 -4 5 12 5 17 0 24 -2 18 -5z
m93 -88 c-27 -8 -61 -22 -75 -33 -14 -10 -37 -24 -51 -31 -19 -9 -17 -5 10 18
38 33 100 59 140 59 15 0 5 -5 -24 -13z m84 -54 c0 -12 -20 -25 -27 -18 -7 7
6 27 18 27 5 0 9 -4 9 -9z"/>
<path d="M3843 7543 c-1 -53 -4 -113 -7 -132 l-5 -36 19 40 c31 64 54 179 40
204 -6 12 -18 21 -28 21 -15 0 -17 -13 -19 -97z"/>
<path d="M4248 7613 c6 -2 18 -2 25 0 6 3 1 5 -13 5 -14 0 -19 -2 -12 -5z"/>
<path d="M4350 7600 c8 -5 20 -10 25 -10 6 0 3 5 -5 10 -8 5 -19 10 -25 10 -5
0 -3 -5 5 -10z"/>
<path d="M4418 7593 c7 -3 16 -2 19 1 4 3 -2 6 -13 5 -11 0 -14 -3 -6 -6z"/>
<path d="M6306 7325 c-3 -10 -3 -22 3 -28 12 -12 20 4 11 27 -6 19 -7 19 -14
1z"/>
<path d="M3866 7278 c-34 -53 -27 -113 18 -153 12 -11 34 -36 48 -55 30 -40
88 -79 88 -59 0 7 -12 27 -26 46 -33 44 -45 85 -45 153 0 30 -2 63 -5 73 -8
26 -60 23 -78 -5z"/>
<path d="M6071 7144 c0 -11 3 -14 6 -6 3 7 2 16 -1 19 -3 4 -6 -2 -5 -13z"/>
<path d="M3840 7090 c0 -5 5 -10 11 -10 5 0 7 5 4 10 -3 6 -8 10 -11 10 -2 0
-4 -4 -4 -10z"/>
<path d="M6440 7024 c-9 -37 -22 -62 -39 -75 -14 -12 -29 -33 -33 -47 -4 -15
-12 -48 -19 -74 -7 -26 -20 -50 -30 -55 -15 -7 -15 -10 -3 -21 11 -10 14 -10
14 1 0 8 9 22 20 32 24 22 26 13 4 -20 -9 -14 -12 -25 -7 -25 13 0 35 49 27
61 -3 6 1 20 9 33 11 17 13 26 5 34 -8 8 -4 14 14 22 13 7 30 26 36 43 12 35
27 147 20 147 -3 0 -11 -25 -18 -56z"/>
<path d="M6215 7039 c-4 -12 -2 -26 4 -32 8 -8 11 -2 11 21 0 37 -6 41 -15 11z"/>
<path d="M6207 6983 c-11 -10 -8 -43 3 -43 6 0 10 4 10 9 0 5 3 16 6 25 6 16
-7 22 -19 9z"/>
<path d="M6191 6895 c-35 -84 -59 -160 -54 -169 3 -6 0 -6 -7 1 -17 16 -39 -5
-32 -31 3 -13 1 -17 -6 -12 -8 5 -10 2 -6 -8 4 -10 1 -16 -8 -16 -7 0 -14 -8
-15 -19 -2 -22 43 -46 61 -32 6 5 26 8 44 6 41 -3 35 4 -12 15 -28 6 -36 5
-39 -9 -3 -11 -5 -9 -6 6 0 12 4 25 10 29 6 3 8 16 5 29 -4 14 -1 25 8 28 7 3
23 38 36 79 13 40 27 78 32 85 5 7 8 20 5 30 -3 14 -6 12 -16 -12z"/>
<path d="M4701 6869 c-28 -23 -51 -47 -51 -55 0 -7 -6 -11 -13 -8 -9 3 -16
-11 -23 -46 -9 -43 -8 -50 5 -50 9 0 34 16 55 35 21 19 43 32 47 29 4 -2 13 4
19 15 6 11 16 18 23 16 8 -4 13 10 15 44 3 66 -14 70 -77 20z"/>
<path d="M4844 6788 c-17 -17 -20 -28 -13 -45 6 -17 5 -23 -6 -23 -12 0 -12
-5 -4 -27 8 -23 7 -30 -8 -41 -16 -13 -15 -14 14 -10 28 4 31 2 22 -14 -5 -10
-14 -18 -20 -18 -5 0 -14 -11 -19 -25 -5 -14 -16 -25 -24 -25 -8 0 -18 -5 -22
-12 -4 -6 -3 -8 2 -5 6 3 16 2 24 -3 9 -5 19 -5 27 2 10 8 13 7 13 -3 0 -12 2
-12 9 0 5 8 7 20 4 28 -3 8 2 13 16 13 16 0 23 8 28 30 3 17 10 30 15 30 5 0
7 4 3 10 -10 16 24 82 45 87 43 11 7 60 -51 69 -27 5 -38 1 -55 -18z m36 -178
c0 -5 -7 -10 -15 -10 -8 0 -15 5 -15 10 0 6 7 10 15 10 8 0 15 -4 15 -10z"/>
<path d="M6235 6780 c-65 -59 -64 -56 -17 -70 25 -7 36 -4 57 12 l26 20 -22
24 c-24 26 -29 28 -44 14z"/>
<path d="M6058 6605 c-3 -6 -2 -28 2 -50 8 -41 12 -39 12 5 0 24 0 24 5 2 3
-18 8 -21 18 -12 16 13 7 53 -11 46 -7 -3 -14 0 -17 7 -2 6 -6 7 -9 2z"/>
<path d="M4770 6580 c0 -5 7 -10 15 -10 8 0 15 5 15 10 0 6 -7 10 -15 10 -8 0
-15 -4 -15 -10z"/>
<path d="M4902 6576 c-34 -20 -35 -23 -2 -18 17 2 30 10 30 18 0 8 -1 14 -2
13 -2 -1 -13 -7 -26 -13z"/>
<path d="M6011 6554 c-10 -24 -12 -24 -38 -8 -22 13 -24 13 -9 1 10 -9 15 -21
10 -28 -5 -9 -2 -10 10 -6 10 4 22 7 27 7 5 0 9 10 10 23 0 22 0 22 10 -2 5
-14 7 -31 5 -38 -4 -8 3 -12 19 -11 27 3 35 18 10 18 -9 0 -15 9 -15 21 0 11
-6 27 -14 34 -11 12 -15 10 -25 -11z"/>
<path d="M4710 6540 c0 -5 5 -10 10 -10 6 0 10 5 10 10 0 6 -4 10 -10 10 -5 0
-10 -4 -10 -10z"/>
<path d="M5991 6484 c0 -11 3 -14 6 -6 3 7 2 16 -1 19 -3 4 -6 -2 -5 -13z"/>
<path d="M6055 6470 c-3 -5 1 -10 10 -10 9 0 13 5 10 10 -3 6 -8 10 -10 10 -2
0 -7 -4 -10 -10z"/>
<path d="M5940 6445 c0 -33 15 -33 16 0 1 14 -2 25 -7 25 -5 0 -9 -11 -9 -25z"/>
<path d="M6020 6455 c0 -8 5 -15 10 -15 6 0 10 7 10 15 0 8 -4 15 -10 15 -5 0
-10 -7 -10 -15z"/>
<path d="M5897 6420 c3 -11 7 -20 8 -20 1 0 5 9 8 20 3 12 0 20 -8 20 -8 0
-11 -8 -8 -20z"/>
<path d="M6033 6418 c-11 -13 -24 -34 -28 -48 -5 -20 -4 -22 5 -10 9 12 10 7
4 -20 -3 -19 -11 -38 -17 -42 -6 -4 -9 -10 -5 -13 3 -4 16 0 28 7 21 13 22 23
4 85 -5 18 -3 21 15 16 12 -3 21 -1 21 5 0 6 3 17 6 26 9 23 -9 20 -33 -6z"/>
<path d="M5846 6403 c-6 -14 -5 -15 5 -6 7 7 10 15 7 18 -3 3 -9 -2 -12 -12z"/>
<path d="M5870 6380 c0 -5 7 -10 15 -10 8 0 15 5 15 10 0 6 -7 10 -15 10 -8 0
-15 -4 -15 -10z"/>
<path d="M6040 6360 c0 -5 5 -10 10 -10 6 0 10 5 10 10 0 6 -4 10 -10 10 -5 0
-10 -4 -10 -10z"/>
<path d="M5822 6310 c0 -14 2 -19 5 -12 2 6 2 18 0 25 -3 6 -5 1 -5 -13z"/>
<path d="M5797 6303 c-2 -5 -1 -19 4 -33 7 -23 7 -23 8 8 1 31 -3 40 -12 25z"/>
<path d="M5967 6287 c-11 -29 -9 -43 4 -30 6 6 9 19 7 29 -3 18 -4 18 -11 1z"/>
<path d="M5753 6225 c-3 -9 -3 -19 1 -22 3 -4 6 -1 6 5 0 7 7 12 16 12 8 0 12
5 9 10 -9 15 -25 12 -32 -5z"/>
<path d="M5943 6222 c1 -16 12 -28 34 -37 27 -12 31 -11 26 1 -3 7 -9 11 -14
8 -5 -3 -10 7 -10 23 -1 17 -3 21 -6 11 -2 -10 -8 -18 -13 -18 -5 0 -11 8 -14
18 -3 11 -4 8 -3 -6z"/>
<path d="M5990 6224 c0 -8 5 -12 10 -9 6 3 10 10 10 16 0 5 -4 9 -10 9 -5 0
-10 -7 -10 -16z"/>
<path d="M5911 6184 c0 -11 3 -14 6 -6 3 7 2 16 -1 19 -3 4 -6 -2 -5 -13z"/>
<path d="M6020 6186 c0 -9 5 -16 10 -16 6 0 10 4 10 9 0 6 -4 13 -10 16 -5 3
-10 -1 -10 -9z"/>
<path d="M5940 6125 c0 -8 -5 -15 -10 -15 -6 0 -5 -6 2 -14 11 -12 14 -11 20
3 10 24 9 41 -2 41 -5 0 -10 -7 -10 -15z"/>
<path d="M5710 6110 c0 -5 5 -10 11 -10 5 0 7 5 4 10 -3 6 -8 10 -11 10 -2 0
-4 -4 -4 -10z"/>
<path d="M5347 5795 c7 -19 33 -27 33 -11 0 8 -9 16 -19 19 -13 3 -18 1 -14
-8z"/>
<path d="M6148 5548 c4 -86 -21 -254 -58 -393 -32 -120 -38 -164 -61 -465 -6
-85 -13 -164 -14 -175 -1 -11 -9 -21 -17 -23 -11 -2 -25 -40 -47 -125 -17 -67
-45 -174 -62 -237 -17 -63 -43 -176 -59 -250 -16 -74 -45 -202 -64 -285 -19
-82 -46 -208 -61 -280 -14 -71 -57 -274 -95 -450 -37 -176 -78 -376 -90 -445
-32 -187 -67 -417 -74 -490 -4 -36 -13 -123 -21 -195 -57 -498 -109 -1266
-114 -1692 l-1 -43 1003 0 1004 0 12 113 c17 158 104 626 132 715 19 57 25 48
59 -88 23 -92 70 -564 70 -707 l0 -33 760 0 760 0 0 23 c-1 29 -34 103 -68
147 -30 38 -57 146 -42 164 10 13 -2 255 -24 506 -8 91 -18 219 -21 285 -6
122 -39 445 -55 545 -51 315 -82 441 -120 485 -26 31 -69 135 -56 135 10 0 46
-39 46 -50 0 -5 5 -10 11 -10 8 0 9 18 4 58 -6 55 -66 325 -85 388 -6 17 -10
40 -10 52 0 11 -4 24 -10 27 -6 4 -3 16 7 32 l17 26 7 -24 6 -24 12 28 c6 16
11 54 11 86 0 48 -6 66 -35 111 -33 53 -34 58 -29 125 7 76 9 67 -71 270 -26
66 -50 134 -53 150 -2 17 -9 36 -15 43 -5 7 -7 15 -4 18 8 8 57 -46 57 -62 0
-8 5 -14 11 -14 27 0 -13 318 -61 485 -12 42 -20 100 -20 146 0 149 -59 202
-330 298 -288 102 -335 119 -375 136 -16 8 -53 23 -82 34 -79 31 -231 109
-293 150 -81 55 -138 87 -305 173 -82 42 -242 125 -355 183 -158 81 -232 126
-325 197 -133 102 -228 195 -272 263 -15 25 -30 45 -33 45 -3 0 -3 -37 -2 -82z
m1197 -2818 l0 -75 -55 -18 c-205 -66 -749 -180 -969 -202 l-63 -6 5 43 c7 56
28 151 36 160 7 8 121 23 331 43 215 21 505 72 555 98 37 20 111 36 145 33 12
-1 15 -17 15 -76z m1375 -420 c0 -5 -2 -10 -4 -10 -3 0 -8 5 -11 10 -3 6 -1
10 4 10 6 0 11 -4 11 -10z"/>
<path d="M4225 5591 c-4 -8 -10 -71 -13 -140 -5 -150 14 -302 60 -468 26 -98
34 -115 63 -137 18 -14 44 -28 59 -32 15 -3 35 -18 44 -31 40 -58 71 -84 139
-118 67 -33 111 -74 141 -130 23 -44 61 -217 72 -325 7 -63 14 -122 17 -130 2
-8 28 44 57 115 29 72 58 140 64 151 13 25 42 183 48 267 3 41 0 57 -9 57 -6
0 -27 14 -46 30 -18 17 -38 30 -42 30 -5 0 -9 7 -9 15 0 8 -8 15 -18 15 -17 0
-60 17 -104 41 -10 5 -24 9 -32 9 -16 0 -177 155 -228 220 -64 80 -148 213
-189 295 -31 64 -41 100 -52 180 -8 66 -16 95 -22 86z"/>
<path d="M5435 5579 c-11 -17 1 -21 15 -4 8 9 8 15 2 15 -6 0 -14 -5 -17 -11z"/>
<path d="M5668 5538 c-10 -10 -18 -22 -18 -28 0 -5 -5 -10 -12 -10 -6 0 -9 -3
-5 -6 3 -4 20 7 37 24 16 17 27 33 23 35 -5 2 -16 -4 -25 -15z"/>
<path d="M5862 5507 c-20 -21 -92 -47 -132 -48 -20 -1 -60 -19 -83 -38 -15
-13 -20 -13 -27 -2 -6 10 -12 8 -25 -12 -9 -14 -29 -30 -43 -35 -15 -5 -39
-26 -52 -46 -16 -23 -33 -36 -47 -36 -12 0 -27 -9 -33 -20 -6 -11 -18 -20 -26
-20 -10 0 -14 -6 -10 -15 3 -9 0 -15 -9 -15 -20 0 -19 -18 0 -22 13 -3 13 -7
1 -30 -9 -17 -11 -29 -4 -36 14 -14 1 -32 -23 -32 -19 0 -19 -2 5 -33 28 -37
32 -47 15 -47 -5 0 -7 5 -3 12 4 7 3 8 -4 4 -6 -4 -9 -13 -5 -21 3 -9 -1 -15
-10 -15 -8 0 -17 -7 -21 -15 -3 -8 -1 -15 3 -15 5 0 12 6 14 13 4 9 6 9 6 -1
1 -8 -8 -16 -18 -19 -20 -5 -38 -33 -22 -33 21 0 133 95 215 181 50 52 135
141 191 199 98 102 182 206 173 215 -3 3 -14 -6 -26 -18z"/>
<path d="M4020 5358 c-83 -48 -536 -200 -1000 -335 -74 -22 -180 -46 -235 -52
-55 -7 -113 -15 -130 -17 -92 -15 -226 -133 -281 -249 -19 -38 -47 -122 -62
-185 -24 -96 -29 -138 -31 -255 -1 -77 -8 -183 -17 -235 -17 -112 -30 -400
-19 -426 4 -11 9 -39 11 -64 3 -25 13 -94 24 -155 25 -145 32 -372 14 -456 -7
-35 -16 -104 -19 -154 -4 -49 -15 -130 -25 -180 -18 -87 -62 -378 -75 -500 -4
-33 -13 -89 -21 -125 -7 -36 -14 -101 -14 -145 0 -49 -6 -96 -17 -123 -13 -35
-14 -53 -6 -100 6 -34 7 -66 2 -80 -5 -13 -9 -43 -9 -68 0 -45 -23 -104 -40
-104 -14 0 -30 -69 -30 -130 0 -44 -4 -59 -20 -73 -18 -15 -20 -25 -14 -75 6
-53 4 -61 -21 -91 -26 -30 -27 -37 -21 -92 3 -36 0 -97 -9 -152 -26 -166 -55
-514 -44 -549 5 -18 9 -54 9 -79 0 -26 3 -61 6 -78 l7 -31 308 0 c284 0 308 1
313 18 5 19 23 110 30 157 3 17 14 84 25 150 27 166 41 315 42 474 1 75 3 125
6 111 2 -14 11 -71 19 -127 9 -56 13 -110 9 -120 -5 -10 -9 -63 -11 -118 -2
-55 -6 -120 -11 -145 -4 -25 -7 -49 -8 -55 0 -5 -4 -14 -10 -18 -6 -6 -6 -10
3 -14 13 -5 17 -33 4 -33 -5 0 -13 -26 -19 -58 -7 -31 -19 -88 -27 -127 -8
-38 -15 -76 -16 -82 0 -10 85 -13 391 -13 l392 0 -7 42 c-7 42 -22 81 -91 237
-21 46 -40 104 -43 128 -4 40 -3 43 20 43 14 0 45 -13 69 -30 59 -40 116 -42
125 -4 9 33 -11 151 -37 223 -11 31 -28 79 -37 106 -9 28 -20 52 -24 53 -14 6
-8 30 10 37 20 9 29 11 58 13 11 1 26 12 31 25 18 40 -2 171 -34 222 -6 11
-13 40 -15 65 -3 43 -2 45 22 42 14 -2 38 -10 54 -18 38 -18 66 -18 66 1 0 8
-23 61 -51 117 -44 85 -52 112 -55 167 -7 123 -13 176 -26 231 -15 67 -15 360
0 445 6 33 14 87 17 120 3 33 8 78 10 100 2 22 11 114 20 205 20 196 36 303
64 425 12 50 28 133 36 185 28 176 36 215 60 286 13 38 29 117 35 174 6 59 24
142 40 190 16 48 36 142 45 211 8 68 20 144 26 169 6 25 14 97 19 160 8 108
11 120 52 200 28 55 62 103 98 138 30 30 86 84 123 120 74 72 103 109 94 119
-4 3 -19 -2 -34 -12 -66 -43 -119 -96 -181 -180 -48 -65 -68 -85 -70 -72 -4
19 15 72 81 222 53 122 147 420 147 468 0 23 -6 22 -70 -15z m-1476 -2718 c10
-63 19 -164 22 -225 17 -406 53 -785 88 -920 24 -94 24 -147 0 -194 -13 -25
-14 -25 -14 -4 0 13 5 42 11 65 11 38 9 52 -14 118 -35 104 -63 240 -81 400
-20 169 -46 545 -53 755 -4 142 -3 158 10 140 8 -11 22 -72 31 -135z m103
-1442 c-3 -8 -6 -5 -6 6 -1 11 2 17 5 13 3 -3 4 -12 1 -19z m5 -119 c2 -50 0
-93 -3 -95 -9 -5 -19 61 -19 129 0 93 18 65 22 -34z"/>
</g>
</svg>
